<svg viewBox="0 0 24 24" xmlns="http://www.w3.org/2000/svg"><path d="m22.8805161 7.3556129-10.8387096-7.22554838c-.2601291-.17341936-.5992259-.17341936-.8585807 0l-10.83870967 7.22554838c-.21522581.14322581-.34451613.38554839-.34451613.64412904v7.22554836c0 .2585807.12929032.5009032.34451613.6441291l10.83870967 7.2255483c.1300645.0867097.2794839.1300646.4296774.1300646.1501936 0 .2996129-.0433549.4296774-.1300646l10.8387097-7.2255483c.2152258-.1432259.3445162-.3855484.3445162-.6441291v-7.22554836c0-.25858065-.1292904-.50090323-.3445162-.64412904zm-11.2683871 6.939871-4.02348384-2.6825807 4.02348384-2.68258062 4.0234839 2.68258062zm.7741936-6.70993551v-5.36516129l8.6686451 5.77935484-4.0234838 2.68258066zm-1.5483871 0-4.64516131 3.09677421-4.02348387-2.68258066 8.66864518-5.77935484zm-6.04103227 4.02735481-3.24929033 2.1661936v-4.33238712zm1.39587096.9305807 4.64516131 3.0967742v5.3651613l-8.66864518-5.7793549zm6.19354841 3.0967742 4.6451613-3.0967742 4.0234838 2.6825806-8.6686451 5.7793549zm6.0410322-4.0273549 3.2492904-2.16619352v4.33238712z" fill="#fff" fill-rule="evenodd" transform=""/></svg>