<?xml version="1.0" encoding="UTF-8"?>
<svg viewBox="0 0 24 24" version="1.1" xmlns="http://www.w3.org/2000/svg" xmlns:xlink="http://www.w3.org/1999/xlink">
    <defs></defs>
    <g id="Mockups-v5-Sizes" stroke="none" stroke-width="1" fill="none" fill-rule="evenodd">
        <g id="Desktop-—-1920" transform="translate(-508.000000, -3147.000000)" fill="#FFFFFF">
            <g id="Group-29" transform="translate(376.000000, 3135.000000)">
                <g id="github-copy" transform="translate(132.000000, 12.000000)">
                    <path d="M12,2.99760217e-15 C5.373,2.99760217e-15 0,5.37225 0,12 C0,17.30175 3.43875,21.80025 8.2065,23.3865 C8.8065,23.4975 9.027,23.12625 9.027,22.809 C9.027,22.52325 9.01575,21.5775 9.0105,20.57475 C5.6715,21.30075 4.96725,19.15875 4.96725,19.15875 C4.42125,17.772 3.63525,17.403 3.63525,17.403 C2.54625,16.65825 3.71775,16.67325 3.71775,16.67325 C4.92225,16.758 5.55675,17.91 5.55675,17.91 C6.627,19.7445 8.364,19.21425 9.04875,18.9075 C9.156,18.132 9.46725,17.6025 9.81075,17.3025 C7.14525,16.9995 4.34325,15.96975 4.34325,11.37225 C4.34325,10.062 4.812,8.99175 5.58,8.151 C5.4555,7.84875 5.0445,6.6285 5.69625,4.9755 C5.69625,4.9755 6.70425,4.653 8.997,6.2055 C9.954,5.93925 10.98075,5.8065 12.00075,5.80125 C13.02,5.80575 14.0475,5.93925 15.00675,6.2055 C17.29725,4.653 18.303,4.9755 18.303,4.9755 C18.95625,6.6285 18.54525,7.84875 18.42075,8.151 C19.19025,8.991 19.656,10.062 19.656,11.37225 C19.656,15.981 16.84875,16.99575 14.1765,17.2935 C14.607,17.66625 14.99025,18.396 14.99025,19.51575 C14.99025,21.1215 14.976,22.41375 14.976,22.809 C14.976,23.1285 15.192,23.50275 15.80025,23.385 C20.56575,21.7965 24,17.30025 24,12 C24,5.37225 18.627,0 12,0 L12,2.99760217e-15 Z"
                          id="Shape"></path>
                </g>
            </g>
        </g>
    </g>
</svg>