<svg viewBox="0 0 24 24" xmlns="http://www.w3.org/2000/svg"><path d="m12 0c-6.627 0-12 5.37225-12 12 0 5.30175 3.43875 9.80025 8.2065 11.3865.6.111.8205-.26025.8205-.5775 0-.28575-.01125-1.2315-.0165-2.23425-3.339.726-4.04325-1.416-4.04325-1.416-.546-1.38675-1.332-1.75575-1.332-1.75575-1.089-.74475.0825-.72975.0825-.72975 1.2045.08475 1.839 1.23675 1.839 1.23675 1.07025 1.8345 2.80725 1.30425 3.492.9975.10725-.7755.4185-1.305.762-1.605-2.6655-.303-5.4675-1.33275-5.4675-5.93025 0-1.31025.46875-2.3805 1.23675-3.22125-.1245-.30225-.5355-1.5225.11625-3.1755 0 0 1.008-.3225 3.30075 1.23.957-.26625 1.98375-.399 3.00375-.40425 1.01925.0045 2.04675.138 3.006.40425 2.2905-1.5525 3.29625-1.23 3.29625-1.23.65325 1.653.24225 2.87325.11775 3.1755.7695.84 1.23525 1.911 1.23525 3.22125 0 4.60875-2.80725 5.6235-5.4795 5.92125.4305.37275.81375 1.1025.81375 2.22225 0 1.60575-.01425 2.898-.01425 3.29325 0 .3195.216.69375.82425.576 4.7655-1.5885 8.19975-6.08475 8.19975-11.385 0-6.62775-5.373-12-12-12z" fill="#fff" fill-rule="evenodd" transform=""/></svg>