<?xml version="1.0" encoding="UTF-8"?>
<svg viewBox="0 0 20 19" version="1.1" xmlns="http://www.w3.org/2000/svg" xmlns:xlink="http://www.w3.org/1999/xlink">
    <defs></defs>
    <g id="Mockups-v5-Sizes" stroke="none" stroke-width="1" fill="none" fill-rule="evenodd">
        <g id="Desktop-—-1920" transform="translate(-630.000000, -3149.000000)" fill="#FFFFFF">
            <g id="Group-29" transform="translate(376.000000, 3135.000000)">
                <g id="linkedin2-copy" transform="translate(254.000000, 14.000000)">
                    <g id="Group">
                        <path d="M7.14285714,5.71428571 L11.0964286,5.71428571 L11.0964286,7.74071429 L11.1528571,7.74071429 C11.7028571,6.75428571 13.0492857,5.71428571 15.0557143,5.71428571 C19.2285714,5.71428571 20,8.31214286 20,11.6907143 L20,18.5714286 L15.8792857,18.5714286 L15.8792857,12.4714286 C15.8792857,11.0164286 15.8492857,9.145 13.7357143,9.145 C11.5892857,9.145 11.2621429,10.7292857 11.2621429,12.3657143 L11.2621429,18.5714286 L7.14285714,18.5714286 L7.14285714,5.71428571 Z" id="Shape"></path>
                        <polygon id="Shape" points="0 5.71428571 4.28571429 5.71428571 4.28571429 18.5714286 0 18.5714286"></polygon>
                        <path d="M4.28571429,2.14285714 C4.28571429,3.32642857 3.32642857,4.28571429 2.14285714,4.28571429 C0.959285714,4.28571429 0,3.32642857 0,2.14285714 C0,0.959285714 0.959285714,0 2.14285714,0 C3.32642857,0 4.28571429,0.959285714 4.28571429,2.14285714 Z" id="Shape"></path>
                    </g>
                </g>
            </g>
        </g>
    </g>
</svg>