<svg height="18" viewBox="0 0 18 18" width="18" xmlns="http://www.w3.org/2000/svg"><path d="m5.3956875 16.2001875c-1.321875 0-2.3956875 1.0783125-2.3956875 2.39175 0 1.3213125 1.0738125 2.38725 2.3956875 2.38725 1.326375 0 2.3990625-1.0659375 2.3990625-2.38725 0-1.314-1.0726875-2.39175-2.3990625-2.39175zm-2.392875-7.084125v3.4498125c2.2460625 0 4.3588125.878625 5.9495625 2.4699375 1.5890625 1.587375 2.466 3.7096875 2.466 5.9641875h3.465c0-6.5536875-5.331375-11.8839375-11.8805625-11.8839375zm.0039375-6.1160625v3.4515c8.0116875 0 14.53275 6.52725 14.53275 14.5485h3.4605c0-9.9225-8.073-18-17.99325-18z" fill="#1399b9" fill-rule="evenodd" transform="translate(-3 -3)"/></svg>