<svg viewBox="0 0 24 19" xmlns="http://www.w3.org/2000/svg"><path d="m96.2770909 16.2363636c-.8545454.3818182-1.7774545.6363637-2.7410909.7498182.9861818-.5912727 1.7410909-1.5272727 2.0996364-2.6407273-.9229091.5454546-1.9454546.9454546-3.032 1.1592728-.8727273-.9272728-2.1134546-1.5047273-3.4865455-1.5047273-2.6363636 0-4.7730909 2.1367273-4.7730909 4.7730909 0 .3723636.0407273.736.1229091 1.0865455-3.968-.2-7.4865455-2.1003637-9.8407273-4.9905455-.4094545.7047273-.6450909 1.5272727-.6450909 2.4 0 1.6545455.8407273 3.1178182 2.1229091 3.9730909-.7818182-.0225454-1.5178182-.2407273-2.1636364-.5956363v.058909c0 2.3134546 1.6458182 4.2458182 3.832 4.6814546-.4.1090909-.8225454.168-1.2589091.168-.3090909 0-.6043636-.032-.8996363-.0865455.6094545 1.8952728 2.3730909 3.2770909 4.4589091 3.3185455-1.6363637 1.2814545-3.6909091 2.0458182-5.9316364 2.0458182-.3861818 0-.7636364-.0225455-1.1410909-.0683637 2.1185455 1.3592728 4.6269091 2.1454546 7.3229091 2.1454546 8.7818182 0 13.5861818-7.2770909 13.5861818-13.5861818 0-.2087273-.0043636-.4138182-.0138182-.6181819.9316364-.6683636 1.7410909-1.5090909 2.3818182-2.4683636z" fill="#fff" fill-rule="evenodd" transform="translate(-73 -14)"/></svg>