<?xml version="1.0" encoding="UTF-8"?>
<svg viewBox="0 0 580 248" version="1.1" xmlns="http://www.w3.org/2000/svg" xmlns:xlink="http://www.w3.org/1999/xlink">
    <desc>Created with Sketch.</desc>
    <defs></defs>
    <g id="Mockups-v5-Desktop" stroke="none" stroke-width="1" fill="none" fill-rule="evenodd">
        <g id="07-404" transform="translate(-342.000000, -291.000000)" fill="#FFFFFF">
            <path d="M482.118164,454.058594 L515.621094,454.058594 L515.621094,478.979492 L482.118164,478.979492 L482.118164,534.762695 L451.585938,534.762695 L451.585938,478.979492 L342,478.979492 L342,460.990234 L449.605469,294.46582 L482.118164,294.46582 L482.118164,454.058594 Z M375.833008,454.058594 L451.585938,454.058594 L451.585938,335.06543 L446.634766,344.307617 L375.833008,454.058594 Z M712.017578,442.835938 C712.017578,458.129634 710.257179,471.690208 706.736328,483.518066 C703.215477,495.345925 698.15433,505.303182 691.552734,513.390137 C684.951139,521.477091 676.864306,527.610982 667.291992,531.791992 C657.719679,535.973003 646.772197,538.063477 634.449219,538.063477 C622.236267,538.063477 611.316292,535.973003 601.688965,531.791992 C592.061638,527.610982 583.892286,521.477091 577.180664,513.390137 C570.469042,505.303182 565.325376,495.345925 561.749512,483.518066 C558.173647,471.690208 556.385742,458.129634 556.385742,442.835938 L556.385742,386.557617 C556.385742,371.263921 558.146141,357.703347 561.666992,345.875488 C565.187843,334.04763 570.276497,324.062866 576.933105,315.920898 C583.589714,307.778931 591.73156,301.590028 601.358887,297.354004 C610.986214,293.11798 621.906189,291 634.119141,291 C646.442119,291 657.417107,293.11798 667.044434,297.354004 C676.67176,301.590028 684.813606,307.778931 691.470215,315.920898 C698.126824,324.062866 703.215477,334.04763 706.736328,345.875488 C710.257179,357.703347 712.017578,371.263921 712.017578,386.557617 L712.017578,442.835938 Z M587.083008,436.729492 L680.660156,364.9375 C678.899731,348.983644 674.251177,336.853394 666.714355,328.546387 C659.177534,320.239379 648.312571,316.085938 634.119141,316.085938 C618.055258,316.085938 606.200071,321.504666 598.553223,332.342285 C590.906375,343.179904 587.083008,358.99599 587.083008,379.791016 L587.083008,436.729492 Z M681.320312,394.149414 L587.908203,465.611328 C589.778655,481.125078 594.56474,492.952759 602.266602,501.094727 C609.968463,509.236694 620.695895,513.307617 634.449219,513.307617 C650.623128,513.307617 662.478315,507.80637 670.015137,496.803711 C677.551958,485.801052 681.320312,469.95746 681.320312,449.272461 L681.320312,394.149414 Z M887.78418,454.058594 L921.287109,454.058594 L921.287109,478.979492 L887.78418,478.979492 L887.78418,534.762695 L857.251953,534.762695 L857.251953,478.979492 L747.666016,478.979492 L747.666016,460.990234 L855.271484,294.46582 L887.78418,294.46582 L887.78418,454.058594 Z M781.499023,454.058594 L857.251953,454.058594 L857.251953,335.06543 L852.300781,344.307617 L781.499023,454.058594 Z"
                  id="404"></path>
        </g>
    </g>
</svg>