<svg viewBox="0 0 580 248" xmlns="http://www.w3.org/2000/svg"><path d="m482.118164 454.058594h33.50293v24.920898h-33.50293v55.783203h-30.532226v-55.783203h-109.585938v-17.989258l107.605469-166.524414h32.512695zm-106.285156 0h75.75293v-118.993164l-4.951172 9.242187zm336.18457-11.222656c0 15.293696-1.760399 28.85427-5.28125 40.682128-3.520851 11.827859-8.581998 21.785116-15.183594 29.872071-6.601595 8.086954-14.688428 14.220845-24.260742 18.401855-9.572313 4.181011-20.519795 6.271485-32.842773 6.271485-12.212952 0-23.132927-2.090474-32.760254-6.271485-9.627327-4.18101-17.796679-10.314901-24.508301-18.401855-6.711622-8.086955-11.855288-18.044212-15.431152-29.872071-3.575865-11.827858-5.36377-25.388432-5.36377-40.682128v-56.278321c0-15.293696 1.760399-28.85427 5.28125-40.682129 3.520851-11.827858 8.609505-21.812622 15.266113-29.95459 6.656609-8.141967 14.798455-14.33087 24.425782-18.566894s20.547302-6.354004 32.760254-6.354004c12.322978 0 23.297966 2.11798 32.925293 6.354004 9.627326 4.236024 17.769172 10.424927 24.425781 18.566894 6.656609 8.141968 11.745262 18.126732 15.266113 29.95459 3.520851 11.827859 5.28125 25.388433 5.28125 40.682129zm-124.93457-6.106446 93.577148-71.791992c-1.760425-15.953856-6.408979-28.084106-13.945801-36.391113-7.536821-8.307008-18.401784-12.460449-32.595214-12.460449-16.063883 0-27.91907 5.418728-35.565918 16.256347s-11.470215 26.653705-11.470215 47.448731zm94.237304-42.580078-93.412109 71.461914c1.870452 15.51375 6.656537 27.341431 14.358399 35.483399 7.701861 8.141967 18.429293 12.21289 32.182617 12.21289 16.173909 0 28.029096-5.501247 35.565918-16.503906 7.536821-11.002659 11.305175-26.846251 11.305175-47.53125zm206.463868 59.90918h33.502929v24.920898h-33.502929v55.783203h-30.532227v-55.783203h-109.585937v-17.989258l107.605468-166.524414h32.512696zm-106.285157 0h75.75293v-118.993164l-4.951172 9.242187z" fill="#fff" fill-rule="evenodd" transform="translate(-342 -291)"/></svg>