<svg viewBox="0 0 26 26" xmlns="http://www.w3.org/2000/svg"><path d="m18 17.759v3.366c0 1.034-.841 1.875-1.875 1.875h-11.25c-1.034 0-1.875-.841-1.875-1.875v-11.25c0-1.034.841-1.875 1.875-1.875h3.429l3.001-3h-6.43c-2.693 0-4.875 2.182-4.875 4.875v11.25c0 2.693 2.182 4.875 4.875 4.875h11.25c2.693 0 4.875-2.182 4.875-4.875v-6.367z"/><path d="m22.581 0h-10.259c-1.886.002-1.755.51-.76 1.504l3.22 3.22-5.52 5.519c-1.145 1.144-1.144 2.998 0 4.141l2.41 2.411c1.144 1.141 2.996 1.142 4.14-.001l5.52-5.52 3.16 3.16c1.101 1.1 1.507 1.129 1.507-.757l.001-10.258c-.001-3.437.024-3.42-3.419-3.419z"/></svg>