<svg viewBox="0 0 442.246 442.246" xmlns="http://www.w3.org/2000/svg"><path d="m409.657 32.474c-43.146-43.146-113.832-43.146-156.978 0l-84.763 84.762c29.07-8.262 60.589-6.12 88.129 6.732l44.063-44.064c17.136-17.136 44.982-17.136 62.118 0s17.136 44.982 0 62.118l-55.386 55.386-36.414 36.414c-17.136 17.136-44.982 17.136-62.119 0l-47.43 47.43c11.016 11.017 23.868 19.278 37.332 24.48 36.415 14.382 78.643 8.874 110.467-16.219 3.06-2.447 6.426-5.201 9.18-8.262l57.222-57.222 34.578-34.578c43.453-43.145 43.453-113.525.001-156.977z"/><path d="m184.135 320.114-42.228 42.228c-17.136 17.137-44.982 17.137-62.118 0-17.136-17.136-17.136-44.981 0-62.118l91.8-91.799c17.136-17.136 44.982-17.136 62.119 0l47.43-47.43c-11.016-11.016-23.868-19.278-37.332-24.48-38.25-15.3-83.232-8.262-115.362 20.502-1.53 1.224-3.06 2.754-4.284 3.978l-91.8 91.799c-43.146 43.146-43.146 113.832 0 156.979 43.146 43.146 113.832 43.146 156.978 0l82.927-83.845c-42.23 9.791-52.022 8.568-88.13-5.814z"/></svg>