<?xml version="1.0" encoding="utf-8"?>
<!-- Generated by IcoMoon.io -->
<!DOCTYPE svg PUBLIC "-//W3C//DTD SVG 1.1//EN" "https://www.w3.org/Graphics/SVG/1.1/DTD/svg11.dtd">
<svg version="1.1" xmlns="https://www.w3.org/2000/svg" xmlns:xlink="http://www.w3.org/1999/xlink" width="487" height="512" viewBox="0 0 487 512"><g id="icomoon-ignore">
</g>
<path d="M480 416l-124.563-124.563c17.781-29.031 28.563-62.859 28.563-99.438 0-106.016-86-192-192-192-106.016 0-192 85.984-192 192 0 106 85.984 192 192 192 36.578 0 70.406-10.781 99.438-28.5l124.563 124.5c8.75 8.75 23.25 8.688 32 0l32-32c8.75-8.75 8.75-23.25 0-32zM192 320c-70.688 0-128-57.313-128-128s57.313-128 128-128 128 57.313 128 128-57.313 128-128 128z"></path>
</svg>
