<svg preserveAspectRatio="xMidYMid meet" viewBox="0 0 7330 4430" xmlns="http://www.w3.org/2000/svg"><g fill="#f8f8f8"><path d="m7020 4417c-60-13-97-36-146-89-42-44-50-93-24-135 18-31 23-33 75-33 43 0 64 6 102 30 26 17 59 30 74 30 25 0 28-4 34-45 8-52-8-155-35-228-11-29-45-97-76-152-104-186-111-200-123-236-32-99-6-199 59-231 35-18 131-24 177-12 13 4 32 22 44 40 33 55 17 141-43 227l-20 28 61 94c90 139 122 206 137 292 16 94 18 234 3 288-14 49-53 102-91 121-40 21-142 26-208 11zm31-975c-24-7-30 13-13 48l16 35 5-40c4-29 2-41-8-43z"/><path d="m1656 4351c-53-36-55-47-56-297 0-288-1-291-50-299-90-15-111-107-39-173l40-38-30-119c-56-223-71-320-71-449 0-153 10-189 66-243 44-42 45-43 116-43 93 0 139 15 183 60 32 32 36 43 37 89 2 68-24 105-76 109-42 4-72-16-87-56-6-15-15-22-27-20-15 3-17 14-14 78 3 90 12 142 58 325 49 196 59 220 81 218 10-2 75-6 145-9l127-7 35 35c42 42 45 69 11 114-30 39-28 38-174 63-62 11-115 21-116 23-2 2 2 32 7 68s11 167 11 292l2 227-31 32c-41 41-105 50-148 20z"/><path d="m4769 4307c-60-14-139-59-180-104-82-89-125-209-185-522-5-24-6-24-88-17-74 5-85 4-100-13-16-17-16-24-4-58 16-46 87-120 123-129 24-6 26-10 21-38-33-179-53-484-37-571 13-68 28-87 66-87 37 0 63 29 70 77 3 22 8 45 10 52 4 12 74 315 96 418 6 28 17 68 24 90 12 38 15 40 74 52 83 17 170 61 193 98 23 39 23 80-2 105-27 27-61 34-132 26-59-6-60-5-54 17 4 12 14 49 22 82s18 69 23 80c6 11 13 31 17 45 16 57 48 112 75 125 15 8 51 15 79 15 41 0 50-3 50-18 0-32 29-62 60-62 35 0 51 24 55 84 2 22 6 64 10 93 7 51 7 52-40 102-26 28-55 52-64 55-44 12-132 13-182 3z"/><path d="m3300 4300c-78-21-142-86-197-201-52-108-76-211-82-349l-6-125-20 40c-46 91-138 126-294 110-42-4-92-8-111-9l-35-1-6 155c-4 85-7 179-8 209-1 46-5 57-35 87-29 29-41 34-83 34s-53-5-81-33c-35-36-34-33-77-552-8-99-19-225-25-280-17-150 4-240 53-233 29 4 39 28 88 208 23 85 43 160 45 167 2 9 11 10 35 1 21-7 82-9 183-5 211 9 272 20 357 62 26 13 27 12 33-33 8-57 38-92 81-92 51 0 78 38 83 115 2 36 8 65 13 65s9-5 9-10c0-6 12-22 26-35 23-21 37-25 92-25 62 0 67 2 116 44 96 81 141 193 141 346-1 173-34 254-130 318-51 33-99 40-165 22zm28-359c-6-81-37-145-78-160l-27-9 21 67c22 68 71 171 83 171 3 0 3-31 1-69z"/><path d="m4173 4289c-32-9-135-102-166-149l-16-25v33c-2 121-119 186-196 109-30-30-33-40-39-112-17-198-47-512-51-535-3-14-8-36-11-50-29-141-6-191 67-139 32 23 56 72 88 180l23 74 37-3c43-4 90 29 118 82 9 17 49 82 90 144 79 120 133 169 175 159 46-11 98-34 118-52 29-26 38-12 45 80 5 72 4 84-17 120-13 21-41 52-63 67-34 23-50 27-105 27-36-1-79-5-97-10z"/><path d="m5334 4259c-52-15-129-96-163-171-52-115-105-450-91-585 7-76 36-113 86-113 71 0 88 26 104 156 21 174 80 378 126 441 22 28 27 31 55 23 45-13 187-16 200-3 27 27 1 134-42 179-59 61-109 84-181 83-35 0-77-5-94-10z"/><path d="m6378 4197c-40-34-48-58-48-149v-83l-16 35c-9 19-21 46-28 60-20 44-92 104-141 119-71 21-215 10-286-21-84-38-157-116-210-223l-44-90-4-128c-3-133 9-233 34-284 25-50 51-66 114-71 51-4 63-1 100 23 93 62 152 177 159 312 5 98-1 125-45 195-14 22-19 39-13 43 37 23 194 6 275-30 39-17 84-8 96 19 10 22 7-50-11-244-21-233-7-315 54-315 23 0 34 7 48 32 11 17 21 44 24 60 23 138 23 139 99 146 47 5 77 14 115 38 34 21 70 34 101 37 27 2 52 9 55 13 3 5 15 9 28 9 30 0 66 40 66 72 0 41-9 57-58 94-38 29-53 34-98 34-69 0-149-18-165-36-6-8-15-14-20-14s-9 69-9 154v154l-35 31c-44 39-97 42-137 8zm-591-529c-2-18-4-6-4 27s2 48 4 33 2-42 0-60z"/><path d="m5036 2809c-37-44-35-90 5-123 37-31 62-33 100-5 25 17 29 27 29 65 0 87-81 126-134 63z"/><path d="m6820 2240c-54-28-142-127-190-214-37-67-44-75-53-60-17 34-51 54-90 54-79 0-135-49-177-156l-19-49-1 66c0 80-32 184-67 221-26 27-99 58-136 58-10 0-35-8-55-17-111-50-231-205-309-398-4-12-10 53-13 160-3 116-10 188-17 202-23 39-63 63-106 63-32 0-46-7-78-39l-39-39-1-98c-1-55-2-103-4-109-1-5-3-39-3-74l-2-65-35 41c-21 24-70 60-118 87-45 24-122 69-172 100-168 103-211 124-267 131-63 8-102-7-138-52-21-27-22-34-16-158 6-123-8-578-20-656-5-32-9-36-50-47-24-7-58-12-74-12-37 0-64-36-54-74 8-34 12-36 91-47 37-5 68-11 70-12 1-2-11-111-27-241-22-178-30-283-30-415-1-200 10-257 62-317 56-63 74-68 268-72 248-6 349 17 338 75-7 37-54 47-228 50-91 1-184 5-206 8-87 12-110 77-101 288 3 78 19 230 35 337 17 107 33 216 36 242 7 45 9 48 44 53 218 30 355 75 366 118 8 32-7 72-29 81-30 11-145 6-242-10-52-9-97-13-100-10-4 3 1 68 10 143 9 76 22 201 28 278s11 141 13 142c1 2 43-23 142-84 10-7 68-39 128-73 105-59 111-61 160-54 28 3 61 13 74 22l24 15-8-164c-12-266-11-421 4-446 15-28 43-29 66-5 16 19 42 104 52 171 12 88 17 116 20 123 3 4 20 0 39-8s55-14 81-14c42 0 51 4 85 40 40 42 72 103 119 230 50 133 106 243 158 308l18 23 52-69c29-40 52-81 52-95 0-34 33-61 65-53l25 6v-79c0-91 16-179 36-202 16-18 18-45 5-53-5-3-12-18-16-33-3-16-13-41-20-58-44-95-140-396-169-527-36-159-39-189-24-218 32-59 81-26 123 83 39 104 79 200 120 292 20 44 41 94 47 110 6 17 75 156 153 310 247 486 340 657 383 698l30 28 55-65c44-52 58-77 67-121 13-62 39-83 84-65 29 11 38 43 26 95-5 22-10 72-10 112 0 123-49 222-131 263-50 26-159 26-209 0zm-539-481-10-24v26c-1 14 2 29 6 33 12 12 14-9 4-35zm162-76c-3-32-12-69-20-83-13-23-14-21-8 32 4 48 22 108 31 108 1 0 0-26-3-57z"/><path d="m1035 2112c-16-10-35-30-42-43-6-13-17-94-23-179-19-262-50-579-60-627-30-132-23-183 25-183 26 0 45 20 75 80 12 25 23 46 24 47s25-9 54-23c46-22 68-25 155-26 113-1 204 9 213 23 3 5 14 9 25 9 29 0 59 36 59 70 0 23-11 41-44 73-53 52-101 67-208 67-46 0-89 4-96 8-14 9-11 93 13 312 13 123 19 228 16 304-1 19-14 41-40 67-32 32-46 39-77 39-22 0-52-8-69-18z"/><path d="m2033 2080c-117-53-212-177-279-365-26-73-29-92-29-215 0-120 2-139 22-176 24-44 38-54 82-54 29 0 61 26 61 51 1 8 7 2 15-12 31-57 141-76 223-39 59 27 160 131 199 205 72 137 80 352 17 475-62 124-199 181-311 130zm85-298c17-55-1-182-34-249-25-53-87-115-151-153-31-18-34-18-29-3 2 10 8 43 11 73 10 83 24 126 72 220 39 75 95 150 113 150 4 0 12-17 18-38z"/><path d="m251 2005c-26-30-31-44-31-85 0-66-29-212-105-530-35-146-70-303-79-350-29-162-36-374-16-449 13-48 92-125 166-160 27-13 56-27 64-31 9-4 56-20 105-35 99-30 262-82 285-92 61-24 148-53 163-53 10 0 28-11 41-25 48-52 110-49 128 7 10 28 0 56-50 139-36 62-47 74-113 125-62 48-106 67-273 120-171 55-245 84-274 109-25 22-27 28-25 107 2 96 38 304 84 479l9 36 38-36c138-132 387-233 429-175 23 31 16 81-13 101-14 10-38 31-52 47-37 39-221 179-255 194-36 16-89 15-106 0-11-11-12-9-8 7 37 132 71 306 75 387 5 114 1 135-32 171-21 22-34 27-74 27-45 0-53-4-81-35z"/><path d="m2527 1996c-29-28-36-44-41-93-4-32-25-146-46-253s-46-244-55-305c-10-60-23-135-30-166-13-64-2-102 35-112 51-13 77 13 114 121 13 37 32 90 41 117 10 28 19 51 21 53 1 2 20-8 43-22 58-37 110-35 156 6 31 26 105 128 105 143 0 9 125 212 152 248 17 20 39 42 49 48 29 15 88-6 119-43 64-75 164-4 115 82-8 14-14 38-15 53 0 40-52 111-100 136-53 27-148 28-207 2-61-28-127-93-187-185-29-45-56-88-59-96s-6 30-6 84c-1 152-42 216-135 216-27 0-44-8-69-34z"/><path d="m3545 1967c-59-23-165-115-165-143 0-4-6-15-13-23-22-27-85-237-117-391-16-80-30-149-30-154 0-10-115 0-182 16-39 10-50 9-71-5-31-20-38-46-22-83 11-26 24-33 101-57 49-15 102-27 118-27 27 0 28-2 22-37-3-21-15-94-25-163-11-69-29-198-41-286-11-89-24-184-30-211-11-63-4-92 26-104 44-16 85 0 101 40 24 56 69 205 97 321 58 241 85 357 91 396 6 42 6 42 66 53 81 16 114 47 110 104-1 22-43 39-94 39-31-1-37 2-33 16 3 9 15 55 26 102 30 118 58 204 91 277 25 55 33 63 66 72 21 6 48 11 60 11 60 0 139-58 154-113 13-49 50-69 79-42 18 16 19 29 17 134-2 112-3 118-34 162-17 25-50 58-74 75-40 27-48 29-153 31-67 1-123-3-141-10z"/><path d="m4185 1376c-48-18-85-47-101-78-15-30-15-30 29-73 40-38 53-44 118-55 99-17 210-8 248 19 57 41 60 119 6 169l-35 32-117-1c-65-1-131-7-148-13z"/></g></svg>