<svg viewBox="0 0 512 512" xmlns="http://www.w3.org/2000/svg"><path d="m489 255.9c0-.2 0-.5 0-.7 0-1.6 0-3.2-.1-4.7 0-.9-.1-1.8-.1-2.8 0-.9-.1-1.8-.1-2.7-.1-1.1-.1-2.2-.2-3.3 0-.7-.1-1.4-.1-2.1-.1-1.2-.2-2.4-.3-3.6 0-.5-.1-1.1-.1-1.6-.1-1.3-.3-2.6-.4-4 0-.3-.1-.7-.1-1-13.2-116.2-111.8-206.5-231.5-206.5s-218.3 90.3-231.5 206.6c0 .3-.1.7-.1 1-.1 1.3-.3 2.6-.4 4-.1.5-.1 1.1-.1 1.6-.1 1.2-.2 2.4-.3 3.6 0 .7-.1 1.4-.1 2.1-.1 1.1-.1 2.2-.2 3.3 0 .9-.1 1.8-.1 2.7s-.1 1.8-.1 2.8c0 1.6-.1 3.2-.1 4.7v.7.1s0 0 0 .1v.7c0 1.6 0 3.2.1 4.7 0 .9.1 1.8.1 2.8 0 .9.1 1.8.1 2.7.1 1.1.1 2.2.2 3.3 0 .7.1 1.4.1 2.1l.3 3.6c0 .5.1 1.1.1 1.6.1 1.3.3 2.6.4 4 0 .3.1.7.1 1 13.2 116.1 111.8 206.4 231.5 206.4s218.3-90.3 231.5-206.5c0-.3.1-.7.1-1 .1-1.3.3-2.6.4-4 .1-.5.1-1.1.1-1.6.1-1.2.2-2.4.3-3.6 0-.7.1-1.4.1-2.1.1-1.1.1-2.2.2-3.3 0-.9.1-1.8.1-2.7s.1-1.8.1-2.8c0-1.6.1-3.2.1-4.7 0-.2 0-.5 0-.7 0-.1 0-.1 0-.2z" fill="#2bb673"/><g fill="none" stroke="#fff" stroke-miterlimit="10" stroke-width="30"><path d="m213.6 344.2 156.1-156"/><path d="m233.8 345.2-79.1-79.1"/></g></svg>