<?xml version="1.0" encoding="UTF-8"?>
<svg viewBox="0 0 20 16" version="1.1" xmlns="http://www.w3.org/2000/svg" xmlns:xlink="http://www.w3.org/1999/xlink">
    <defs></defs>
    <g id="Mockups-v5-Sizes" stroke="none" stroke-width="1" fill="none" fill-rule="evenodd">
        <g id="Desktop-—-1920" transform="translate(-878.000000, -886.000000)" fill-rule="nonzero" fill="#BEBEBE">
            <g id="Group-3" transform="translate(876.000000, 881.000000)">
                <g id="Group-2">
                    <g id="Group-18" transform="translate(0.000000, 1.000000)">
                        <path d="M5.5,9 C6.32842712,9 7,8.32842712 7,7.5 C7,6.67157288 6.32842712,6 5.5,6 C4.67157288,6 4,6.67157288 4,7.5 C4,8.32842712 4.67157288,9 5.5,9 L5.5,9 Z M17.41,11.58 C17.77,11.94 18,12.44 18,13 C18,13.55 17.78,14.05 17.41,14.41 L12.41,19.41 C12.05,19.77 11.55,20 11,20 C10.45,20 9.95,19.78 9.58,19.41 L2.59,12.42 C2.22,12.05 2,11.55 2,11 L2,6 C2,4.89 2.89,4 4,4 L9,4 C9.55,4 10.05,4.22 10.41,4.58 L17.41,11.58 L17.41,11.58 Z M13.54,5.71 L14.54,4.71 L21.41,11.58 C21.78,11.94 22,12.45 22,13 C22,13.55 21.78,14.05 21.42,14.41 L16.04,19.79 L15.04,18.79 L20.75,13 L13.54,5.71 Z" id="Shape"></path>
                    </g>
                </g>
            </g>
        </g>
    </g>
</svg>