<svg fill="#DF4571" xmlns="http://www.w3.org/2000/svg" viewBox="0 0 467 100" enable-background="new 0 0 467 100" xml:space="preserve"><path d="M71.4,100H31.7c-0.9,0-1.7-0.6-1.9-1.4L0.4,2.6C0,1.3,1,0,2.4,0h95.3c1.1,0,2,0.9,2,2v16c0,1.1-0.9,2-2,2 H31.4c-1.3,0-2.3,1.3-1.9,2.6l4.9,16c0.3,0.8,1,1.4,1.9,1.4h18c0.9,0,1.7,0.6,1.9,1.4l17.1,56C73.7,98.7,72.7,100,71.4,100z M77.5,42.6l4.9,16c0.3,0.8,1,1.4,1.9,1.4h13.4c1.1,0,2-0.9,2-2V42c0-1.1-0.9-2-2-2H79.4C78,40,77.1,41.3,77.5,42.6z"></path><path d="M140.6,20h25.8c0.6,0,1,0.4,1,1v7.3c0,0.6-0.4,1-1,1h-15.2c-0.6,0-1,0.4-1,1V36c0,0.6,0.4,1,1,1h11.4 c0.6,0,1,0.4,1,1v6.7c0,0.6-0.4,1-1,1h-11.4c-0.6,0-1,0.4-1,1v12.2c0,0.6-0.4,1-1,1h-8.6c-0.6,0-1-0.4-1-1V21 C139.6,20.4,140.1,20,140.6,20z"></path><path d="M176.9,31.8c0.5,0,0.9,0.4,1,0.9l0,0.4c0.1,0.8,1.1,1.2,1.7,0.6c0.5-0.4,1-0.8,1.5-1.2 c1.2-0.8,2.6-1.2,4.3-1.2c0.8,0,1.5,0,2.1,0.1c0.2,0,0.4,0.1,0.6,0.1c0.5,0.1,0.8,0.6,0.8,1.1l-1,6.7c-0.1,0.5-0.6,0.9-1.1,0.8 c-0.6-0.1-1.3-0.2-2-0.2c-4.4,0-6.6,2.4-6.6,7.2v11.6c0,0.6-0.4,1-1,1H169c-0.6,0-1-0.4-1-1V32.8c0-0.6,0.4-1,1-1H176.9z"></path><path d="M189.5,45.9c0-2.1,0.4-4,1.1-5.9c0.7-1.8,1.8-3.4,3.1-4.8c1.3-1.4,2.9-2.4,4.7-3.2c1.8-0.8,3.9-1.2,6.1-1.2 s4.3,0.4,6.1,1.2c1.8,0.8,3.4,1.8,4.7,3.2c1.3,1.4,2.3,3,3.1,4.8c0.7,1.8,1.1,3.8,1.1,5.9c0,2.1-0.4,4.1-1.1,5.9 c-0.7,1.8-1.8,3.4-3.1,4.8c-1.3,1.4-2.9,2.4-4.7,3.2c-1.8,0.8-3.9,1.2-6.1,1.2s-4.3-0.4-6.1-1.2c-1.8-0.8-3.4-1.8-4.7-3.2 c-1.3-1.4-2.3-2.9-3.1-4.8C189.9,49.9,189.5,48,189.5,45.9z M204.6,52c1.7,0,3-0.6,4-1.7c1-1.2,1.5-2.6,1.5-4.4 c0-1.8-0.5-3.3-1.5-4.4c-1-1.2-2.3-1.7-4-1.7s-3,0.6-4,1.7s-1.5,2.6-1.5,4.4c0,1.8,0.5,3.3,1.5,4.4C201.5,51.4,202.9,52,204.6,52z"></path><path d="M222.5,32.8c0-0.6,0.4-1,1-1h7.9c0.5,0,0.9,0.4,1,0.9l0,0.1c0.1,0.8,1,1.1,1.6,0.6c0.2-0.1,0.3-0.3,0.5-0.4 c0.7-0.5,1.5-0.9,2.2-1.1c0.8-0.3,1.5-0.5,2.2-0.6c0.7-0.1,1.3-0.2,1.8-0.2c1.5,0,2.8,0.2,4.1,0.6c1.3,0.4,2.3,1.1,3.3,2 c0.9,0.9,1.6,2.1,2.2,3.5s0.8,3.1,0.8,5.1v16.7c0,0.6-0.4,1-1,1h-8.1c-0.6,0-1-0.4-1-1V44.6c0-1.4-0.3-2.5-0.9-3.4 c-0.6-0.8-1.5-1.3-2.8-1.3c-0.9,0-1.7,0.1-2.3,0.4c-0.6,0.3-1.1,0.7-1.4,1.1s-0.6,1-0.7,1.6c-0.1,0.6-0.2,1.2-0.2,1.8v14 c0,0.6-0.4,1-1,1h-8.1c-0.6,0-1-0.4-1-1L222.5,32.8z"></path><path d="M257.4,39.6h-3.1c-0.6,0-1-0.4-1-1v-5.8c0-0.6,0.4-1,1-1h2.1c0.6,0,1-0.4,1-1v-7.3c0-0.6,0.4-1,1-1h8.1 c0.6,0,1,0.4,1,1v7.3c0,0.6,0.4,1,1,1h4.9c0.6,0,1,0.4,1,1v5.8c0,0.6-0.4,1-1,1h-4.9c-0.6,0-1,0.4-1,1v8.9c0,2.3,1.1,3.5,3.3,3.5 c0.6,0,1.3-0.1,1.9-0.4c0.3-0.1,0.6-0.3,0.9-0.5c0.5-0.3,1-0.1,1.3,0.3l2.9,4.6c0.3,0.4,0.2,1-0.3,1.3c-1.1,0.7-2.2,1.3-3.5,1.8 c-1.6,0.6-3.2,0.8-4.8,0.8c-2.3,0-4.2-0.3-5.7-1c-1.5-0.6-2.8-1.5-3.7-2.7c-0.9-1.1-1.6-2.5-1.9-4.1c-0.4-1.6-0.6-3.3-0.6-5.2 L257.4,39.6L257.4,39.6z"></path><path d="M281.7,37.6h15.8c0.6,0,1,0.4,1,1v6.7c0,0.6-0.4,1-1,1h-15.8c-0.6,0-1-0.4-1-1v-6.7 C280.7,38.1,281.1,37.6,281.7,37.6z"></path><path d="M304.5,29.3h-10.3c-0.6,0-1-0.4-1-1V21c0-0.6,0.4-1,1-1h33.1c0.6,0,1,0.4,1,1v7.3c0,0.6-0.4,1-1,1h-10.2 c-0.6,0-1,0.4-1,1v28.7c0,0.6-0.4,1-1,1h-8.7c-0.6,0-1-0.4-1-1V30.3C305.5,29.7,305,29.3,304.5,29.3z"></path><path d="M325.7,31.8h7.9c0.5,0,0.9,0.4,1,0.9l0,0.4c0.1,0.8,1.1,1.2,1.7,0.6c0.5-0.4,1-0.8,1.5-1.2 c1.2-0.8,2.6-1.2,4.3-1.2c0.8,0,1.5,0,2.1,0.1c0.2,0,0.4,0.1,0.6,0.1c0.5,0.1,0.8,0.6,0.8,1.1l-1,6.7c-0.1,0.5-0.6,0.9-1.1,0.8 c-0.6-0.1-1.3-0.2-2-0.2c-4.4,0-6.6,2.4-6.6,7.2v11.6c0,0.6-0.4,1-1,1h-8.1c-0.6,0-1-0.4-1-1l0-26.1 C324.7,32.2,325.1,31.8,325.7,31.8z"></path><path d="M374.8,46.2c-0.1-2.2-0.3-4.3-1.1-6.4c-1.5-4.3-4.7-7.5-9.2-8.6c-4.4-1.1-9.3-0.2-12.9,2.6 c-6.6,5.2-7.5,16.9-1.5,22.9c2.8,2.8,6.7,3.9,10.6,4.1c4.2,0.2,8.7-0.5,12.5-2.5c0.5-0.2,0.7-0.8,0.4-1.3l-2.3-4.8 c-0.2-0.5-0.8-0.7-1.3-0.5c-2.4,1.2-5.2,1.7-7.9,1.5c-2.3-0.1-5-0.9-6-3.1c-0.3-0.6,0.2-1.4,0.9-1.4h13.4c1,0,2,0,3,0 c0.2,0,1.2,0.2,1.4,0C375,48.6,374.8,46.6,374.8,46.2z M364.7,42.9H357c-0.7,0-1.2-0.6-1-1.3c1.2-4.2,8.4-4.2,9.6,0 C365.8,42.2,365.3,42.9,364.7,42.9z"></path><path d="M378.1,32.8c0-0.6,0.4-1,1-1h7.9c0.5,0,0.9,0.4,1,0.9l0,0.1c0.1,0.8,1,1.1,1.6,0.6c0.2-0.1,0.3-0.3,0.5-0.4 c0.7-0.5,1.5-0.9,2.2-1.1c0.8-0.3,1.5-0.5,2.2-0.6c0.7-0.1,1.3-0.2,1.8-0.2c1.5,0,2.8,0.2,4.1,0.6c1.3,0.4,2.3,1.1,3.3,2 c0.9,0.9,1.6,2.1,2.2,3.5c0.5,1.4,0.8,3.1,0.8,5.1v16.7c0,0.6-0.4,1-1,1h-8.1c-0.6,0-1-0.4-1-1V44.6c0-1.4-0.3-2.5-0.9-3.4 s-1.5-1.3-2.8-1.3c-0.9,0-1.7,0.1-2.3,0.4c-0.6,0.3-1.1,0.7-1.4,1.1s-0.6,1-0.7,1.6c-0.1,0.6-0.2,1.2-0.2,1.8v14c0,0.6-0.4,1-1,1 h-8.1c-0.6,0-1-0.4-1-1L378.1,32.8z"></path><path d="M429.7,58.9c-0.1-0.7-1-1.1-1.6-0.6c-0.7,0.6-1.5,1.1-2.4,1.5c-1.4,0.6-2.8,0.9-4.1,0.9 c-1.5,0-2.9-0.2-4.2-0.7c-1.3-0.5-2.4-1.1-3.4-1.9c-1.5-1.3-2.7-3-3.5-5.1c-0.8-2.1-1.2-4.4-1.2-6.9c0-2.1,0.4-4.1,1.1-5.9 c0.7-1.8,1.7-3.4,3.1-4.7s2.9-2.4,4.8-3.1c1.9-0.8,3.9-1.1,6.2-1.1c0.9,0,1.8,0.1,2.5,0.2c0.2,0,0.5,0.1,0.7,0.1 c0.6,0.1,1.2-0.3,1.2-1l0-9.6c0-0.6,0.4-1,1-1h8.1c0.6,0,1,0.4,1,1v37.9c0,0.6-0.4,1-1,1h-7.4c-0.5,0-0.9-0.3-1-0.8L429.7,58.9z M429,41c0-0.4-0.3-0.8-0.7-1c-0.8-0.2-1.7-0.3-2.6-0.3c-1.8,0-3.3,0.6-4.4,1.7c-1.1,1.1-1.7,2.8-1.7,5.1c0,1.7,0.4,3,1.2,4 c0.8,1,2.1,1.5,3.7,1.5c1.5,0,2.6-0.4,3.3-1.3c0.7-0.9,1.1-2.1,1.1-3.7L429,41z"></path><path d="M444.9,51.4c0.3-0.5,0.9-0.6,1.4-0.3c0.3,0.2,0.6,0.4,1,0.5c0.7,0.3,1.4,0.6,2.1,0.9 c0.7,0.2,1.5,0.4,2.2,0.6c0.7,0.1,1.4,0.2,1.9,0.2c1,0,1.9-0.1,2.7-0.4s1.1-0.8,1.1-1.7c0-0.6-0.4-1.1-1.3-1.5 c-0.9-0.4-2.4-0.9-4.6-1.6c-1.2-0.4-2.4-0.8-3.4-1.3s-1.9-1.1-2.7-1.8c-0.8-0.7-1.3-1.5-1.8-2.4c-0.6-1.2-0.7-2.6-0.6-4.3 c0-0.1,0-0.1,0-0.2c0.5-1.9,1.5-3.5,3.2-4.8c1.1-0.8,2.3-1.4,3.8-1.9c1.5-0.5,3.1-0.7,4.9-0.7c2.3,0,4.4,0.3,6.3,0.8 c1.6,0.5,3,1.1,4.4,2c0.5,0.3,0.6,0.9,0.4,1.3l-2.5,4.6c-0.3,0.5-0.9,0.7-1.4,0.4c-1.2-0.7-2.6-1.2-3.9-1.7c-0.1,0-0.2,0-0.2-0.1 c-3.4-0.4-5.1,0.1-5.1,1.5c0,0.5,0.2,0.9,0.6,1.2c0.4,0.3,0.9,0.6,1.5,0.8c0.6,0.2,1.4,0.4,2.2,0.7c0.8,0.2,1.7,0.5,2.7,0.8 c1.4,0.5,2.6,1,3.5,1.6c0.9,0.6,1.6,1.3,2.2,2c0.5,0.7,0.9,1.5,1.1,2.4c0.2,0.9,0.3,1.8,0.3,2.7c0,1.7-0.4,3.2-1.2,4.3 s-1.8,2.1-3,2.8c-1.2,0.7-2.6,1.2-4.2,1.5c-1.5,0.3-3,0.4-4.5,0.4c-2.4,0-4.8-0.3-7.2-1c-2-0.5-3.6-1.3-5-2.3 c-0.4-0.3-0.6-0.9-0.3-1.4L444.9,51.4z"></path> </svg>