<svg id="Layer_1" data-name="Layer 1" xmlns="http://www.w3.org/2000/svg" viewBox="0 0 583.47 336.16"><defs><style>.cls-1{fill:#e43916;}.cls-2{fill:#ffea43;}</style></defs><title>logo</title><path class="cls-1" d="M25.83,10.38c10.39,5.84,28.68,15.77,39.25,20.13,0.59,34.25-17.19,25.09-17.19,25.09L38.3,51.82c-3-1.37-5.54.84-5.54,4.11V89.58L58.3,96.52c1.21,24.63-10.54,29.24-18.48,27.16-1.79-.47-7.26-1.54-7.26-1.54L32.83,188,7,188.68S7.14,56.87,6.89,27.2c0-4.08.37-11.63,4.95-16.21S20,7.1,25.83,10.38Z"/><path class="cls-1" d="M68.24,32.09A171.76,171.76,0,0,0,93,41.82s-0.77,85.45.05,113.9c0.06,2,1.3,5.67,5.1,5.67s5.21-3.66,5.21-5.56c0-27.53-.36-110.23-0.36-110.23s15.41,5.76,23,7.5c0,0-.29,81.39,0,108.52,0.1,9.48-6.05,26.15-27.78,26.15-25.25,0-29.51-22.25-29.51-33.7C68.66,121.66,68.24,32.09,68.24,32.09Z"/><path class="cls-1" d="M136.13,56.05s16.65,5.05,24.94,6.31V164.56L186,165.27v22.29l-49.35.2Z"/><path class="cls-1" d="M192.77,68.9s14.86,2.34,23.14,3.6v93.56l26.71,0.37-0.15,20.92-49.33.17Z"/><path class="cls-1" d="M282.59,99h12.63c18.07-.55,16.65-21.62,16.65-21.62-11.44.34-24.7,0.16-42.53-.55-13.17-.52-17.91,8.26-17.91,14.28v33.74c0,17.16,15.89,20.48,27.37,20.48,6.94,0,6.55,3.79,6.55,3.79l-0.16,13.3c0,7.81-7,7.06-7,7.06H266.42c-16.89,0-14.91,18.07-14.91,18.07h41.27c13.57,0,18.64-7.24,18.78-12.94,0.19-7.85,0-20.75,0-31.41,0-7-5.39-13.52-13.63-16.23-4.47-1.47-9.56-1.82-15.57-1.82-6.86,0-6.23-4.08-6.23-6.28V103.72S276,99,282.59,99Z"/><path class="cls-1" d="M317.34,77.07V98.56l14.75-.38a1.28,1.28,0,0,1,1.1,1.41L332.72,188h24.64L358,97.26a0.92,0.92,0,0,1,.84-0.91l14.68-1.17V73.13S334.81,77.07,317.34,77.07Z"/><path class="cls-1" d="M502.35,70.81V42.61a407,407,0,0,1-38.76,12.56c-6.27,1.91-17.74,10.64-17.74,25.53,0,17.68.11,65.09-.53,86.7-0.16,5.33.28,11.35,5.21,16,3.93,3.7,9.17,5.77,17.31,5.26L500.45,189l0.68-26.2L478.46,164a6,6,0,0,1-6.62-6.36s1.39-53.11.59-70.79c-0.29-6.42,3-8.57,7.62-9.78Z"/><path class="cls-1" d="M512.47,39.25l26.36-10.87-0.36,59.83,18.69-68,26.3-13.44s-25,104.45-30,119.84c0,0,16.81,49.27,18.89,61.92l-28.25.16-6.73-26.83-0.74,26.83-25.86.05C512.24,155.83,512.47,39.25,512.47,39.25Z"/><path class="cls-1" d="M168.23,336.16l24.66-8.6,0.27-47.28a1.61,1.61,0,0,1,1.26-1.57l10.82-2.4c17-3.87,14.4-20.56,14.4-20.56l-25.45,3.21a0.79,0.79,0,0,1-.9-0.78c0-2.83.07-11.82,0.07-18.52,0-8,8.17-8,8.17-8l12.39-.67c14.72-2.53,13.42-19.57,13.42-19.57s-22.15.41-40.25,0.41c-6.94,0-18.08,5.08-18.08,17.55C169,229.35,168,328.34,168.23,336.16Z"/><path class="cls-1" d="M287.39,211.17v18.89H257v23.32s17.57-.75,28.78-0.28c0,3.24.16,14.07,0.16,18.23-14.78-.09-28.83.24-28.83,0.24l0.26,21.81s23.63-.81,30.58.13v21.78s-27.58-.8-46.84,2.07a7,7,0,0,1-4.21-.57,5.26,5.26,0,0,1-2.87-3.45,23.06,23.06,0,0,1-.45-5.84l0.35-89s-0.24-7.29,7.81-7.29h45.61Z"/><path class="cls-1" d="M354.78,211.17H311s-16.62,2.1-16.62,14.31V255s2,17.89,28.3,17.89c0,0,7.89-.42,7.89,5.26v12.63s0.95,4.52-6,4.52a96,96,0,0,1-13.47-1.05s-16.1-1.68-16,20.1c0,0,24.73.42,42,4.1s19.25-5.58,19.25-13.57l-0.42-30.3s-1.47-20.2-27.78-20.2c0,0-6.84,1.47-6.84-4.95V234.85s1.37-4.73,7.68-4.73S354.78,235.79,354.78,211.17Z"/><path class="cls-1" d="M358.1,211.17L358.57,231l14.29,0.35a1.9,1.9,0,0,1,1.85,1.86l1.94,95.17s18.07,4.5,25.25,7.58L399.18,234a1.64,1.64,0,0,1,1.7-1.68l13.48,0.49V211.43Z"/><path class="cls-1" d="M418.29,69.31a3.57,3.57,0,0,0-4.41-2.76c-3,.79-7.25,1.84-10.44,2.34-2.19.35-4.46,0.55-6.38,0.68-3,.19-4.8,2.13-5.43,5l-25,113.51,24.66,0.25L396,169l17.24-.43,4.13,20.12,24.71-.21Zm-10.63,78.4-7.77.45c-1.24.07-1.74-.59-1.51-1.82l4.48-25a0.8,0.8,0,0,1,1.57-.07l4.87,24.27A1.78,1.78,0,0,1,407.66,147.71Z"/><path class="cls-2" d="M18.93,3.65C29.32,9.49,47.62,19.41,58.18,23.78,58.77,58,41,48.87,41,48.87l-9.57-3.79c-3-1.37-5.54.84-5.54,4.11V82.85L51.4,89.79c1.21,24.63-10.54,29.24-18.48,27.16-1.79-.47-7.26-1.54-7.26-1.54l0.28,65.88-25.86.66S0.25,50.14,0,20.47C0,16.39.37,8.84,5,4.26S13.1,0.37,18.93,3.65Z"/><path class="cls-2" d="M61.35,25.36a171.76,171.76,0,0,0,24.73,9.73s-0.77,85.45.05,113.9c0.06,2,1.3,5.67,5.1,5.67s5.21-3.66,5.21-5.56c0-27.53-.36-110.23-0.36-110.23s15.41,5.76,23,7.5c0,0-.29,81.39,0,108.52C119.16,164.36,113,181,91.28,181c-25.25,0-29.51-22.25-29.51-33.7C61.77,114.92,61.35,25.36,61.35,25.36Z"/><path class="cls-2" d="M129.24,49.32s16.65,5.05,24.94,6.31V157.83l24.94,0.71v22.29l-49.35.2Z"/><path class="cls-2" d="M185.88,62.16s14.86,2.34,23.14,3.6v93.56l26.71,0.37-0.15,20.92-49.33.17Z"/><path class="cls-2" d="M275.7,92.25h12.63C306.4,91.7,305,70.63,305,70.63c-11.44.34-24.7,0.16-42.53-.55-13.17-.52-17.91,8.26-17.91,14.28v33.74c0,17.16,15.89,20.48,27.37,20.48,6.94,0,6.55,3.79,6.55,3.79l-0.16,13.3c0,7.81-7,7.06-7,7.06H259.52c-16.89,0-14.91,18.07-14.91,18.07h41.27c13.57,0,18.64-7.24,18.78-12.94,0.19-7.85,0-20.75,0-31.41,0-7-5.39-13.52-13.63-16.23-4.47-1.47-9.56-1.82-15.57-1.82-6.86,0-6.23-4.08-6.23-6.28V97S269.07,92.25,275.7,92.25Z"/><path class="cls-2" d="M310.45,70.34V91.83l14.75-.38a1.28,1.28,0,0,1,1.1,1.41l-0.48,88.43h24.64l0.61-90.77a0.92,0.92,0,0,1,.84-0.91l14.68-1.17V66.39S327.92,70.34,310.45,70.34Z"/><path class="cls-2" d="M495.45,64.08V35.88a407,407,0,0,1-38.76,12.56C450.42,50.35,439,59.08,439,74c0,17.68.11,65.09-.53,86.7-0.16,5.33.28,11.35,5.21,16,3.93,3.7,9.17,5.77,17.31,5.26l32.62,0.32,0.68-26.2-22.67,1.21a6,6,0,0,1-6.62-6.36s1.39-53.11.59-70.79c-0.29-6.42,3-8.57,7.62-9.78Z"/><path class="cls-2" d="M505.58,32.51l26.36-10.87-0.36,59.83,18.69-68L576.58,0s-25,104.45-30,119.84c0,0,16.81,49.27,18.89,61.92l-28.25.16-6.73-26.83-0.74,26.83L503.9,182C505.34,149.09,505.58,32.51,505.58,32.51Z"/><path class="cls-2" d="M161.34,329.42l24.66-8.6,0.27-47.28a1.61,1.61,0,0,1,1.26-1.57l10.82-2.4c17-3.87,14.4-20.56,14.4-20.56l-25.45,3.21a0.79,0.79,0,0,1-.9-0.78c0-2.83.07-11.82,0.07-18.52,0-8,8.17-8,8.17-8l12.39-.67c14.72-2.53,13.42-19.57,13.42-19.57s-22.15.41-40.25,0.41c-6.94,0-18.08,5.08-18.08,17.55C162.12,222.62,161.14,321.61,161.34,329.42Z"/><path class="cls-2" d="M280.5,204.44v18.89H250.14v23.32s17.57-.75,28.78-0.28c0,3.24.16,14.07,0.16,18.23-14.78-.09-28.83.24-28.83,0.24l0.26,21.81s23.63-.81,30.58.13v21.78s-27.58-.8-46.84,2.07A7,7,0,0,1,230,310a5.26,5.26,0,0,1-2.87-3.45,23.06,23.06,0,0,1-.45-5.84l0.35-89s-0.24-7.29,7.81-7.29H280.5Z"/><path class="cls-2" d="M347.89,204.44H304.12s-16.62,2.1-16.62,14.31v29.57s2,17.89,28.3,17.89c0,0,7.89-.42,7.89,5.26v12.63s0.95,4.52-6,4.52a96,96,0,0,1-13.47-1.05s-16.1-1.68-16,20.1c0,0,24.73.42,42,4.1s19.25-5.58,19.25-13.57L349,267.88s-1.47-20.2-27.78-20.2c0,0-6.84,1.47-6.84-4.95V228.11s1.37-4.73,7.68-4.73S347.89,229.06,347.89,204.44Z"/><path class="cls-2" d="M351.2,204.44l0.47,19.83L366,224.62a1.9,1.9,0,0,1,1.85,1.86l1.94,95.17s18.07,4.5,25.25,7.58l-2.72-101.94a1.64,1.64,0,0,1,1.7-1.68l13.48,0.49V204.7Z"/><path class="cls-2" d="M411.4,62.58A3.57,3.57,0,0,0,407,59.82c-3,.79-7.25,1.84-10.44,2.34-2.19.35-4.46,0.55-6.38,0.68-3,.19-4.8,2.13-5.43,5l-25,113.51,24.66,0.25,4.66-19.39,17.24-.43,4.13,20.12,24.71-.21ZM400.77,141l-7.77.45c-1.24.07-1.74-.59-1.51-1.82l4.48-25a0.8,0.8,0,0,1,1.57-.07l4.87,24.27A1.78,1.78,0,0,1,400.77,141Z"/></svg>