<svg width="560" height="231" viewBox="0 0 560 231" fill="none" xmlns="http://www.w3.org/2000/svg">
<path fill-rule="evenodd" clip-rule="evenodd" d="M185 228.759V103.747C150.712 104.02 123 131.9 123 166.253C123 200.606 150.712 228.486 185 228.759Z" fill="#8E70FF"/>
<path fill-rule="evenodd" clip-rule="evenodd" d="M408.999 46.8073C408.792 20.9211 387.744 -9.29067e-07 361.809 -2.06271e-06C335.874 -3.19636e-06 314.826 20.9211 314.62 46.8072L408.999 46.8073Z" fill="#1FE9AC"/>
<path fill-rule="evenodd" clip-rule="evenodd" d="M185 228.758C219.288 228.485 247 200.604 247 166.252C247 131.899 219.288 104.019 185 103.745L185 228.758Z" fill="#1A0942"/>
<path fill-rule="evenodd" clip-rule="evenodd" d="M314.622 46.807C314.828 72.6932 335.876 93.6143 361.811 93.6143C387.746 93.6143 408.794 72.6932 409 46.807L314.622 46.807Z" fill="#1FE9AC"/>
<circle cx="61.5" cy="166.281" r="61.5" fill="#1A0942"/>
<rect x="61" y="104.781" width="62" height="123" fill="#1FE9AC"/>
<rect x="247" y="104.781" width="47" height="123" fill="#1FE9AC"/>
<rect x="325" y="104.781" width="47" height="123" fill="#8E70FF"/>
<path d="M294 104.781L372 227.781L294 227.781V104.781Z" fill="#1A0942"/>
<path d="M4.40234 84.153V7.98633H40.4124C43.977 7.98633 47.1779 8.60468 50.015 9.84139C52.8522 11.0053 55.2529 12.6422 57.217 14.7518C59.254 16.8615 60.818 19.4441 61.9092 22.4995C63.0005 25.4821 63.5461 28.7557 63.5461 32.3204C63.5461 35.9577 63.0005 39.2678 61.9092 42.2504C60.818 45.2331 59.254 47.7792 57.217 49.8889C55.2529 51.9986 52.8522 53.6718 50.015 54.9085C47.1779 56.0724 43.977 56.6544 40.4124 56.6544H20.9888V84.153H4.40234ZM20.9888 42.2504H38.4482C40.9216 42.2504 42.8494 41.632 44.2316 40.3953C45.6866 39.0859 46.414 37.1944 46.414 34.721V29.9197C46.414 27.4463 45.6866 25.5912 44.2316 24.3545C42.8494 23.0451 40.9216 22.3903 38.4482 22.3903H20.9888V42.2504Z" fill="#1A0942"/>
<path d="M76.0132 84.153V7.98633H92.5996V69.4216H121.626V84.153H76.0132Z" fill="#1A0942"/>
<path d="M182.611 84.153L177.155 66.0388H151.73L146.274 84.153H129.469L154.567 7.98633H175.082L199.852 84.153H182.611ZM164.606 23.0451H164.06L155.658 51.9622H173.117L164.606 23.0451Z" fill="#1A0942"/>
<path d="M235.005 22.7177V84.153H218.418V22.7177H197.794V7.98633H255.628V22.7177H235.005Z" fill="#1A0942"/>
<path d="M266.975 84.153V7.98633H317.499V22.7177H283.562V38.322H312.479V52.9443H283.562V84.153H266.975Z" fill="#1A0942"/>
<path d="M427.988 84.153H411.402V7.98633H447.521C451.013 7.98633 454.177 8.56831 457.014 9.73227C459.851 10.8962 462.252 12.5694 464.216 14.7518C466.253 16.8615 467.817 19.4077 468.909 22.3903C470 25.373 470.545 28.683 470.545 32.3204C470.545 37.4854 469.381 41.9958 467.053 45.8514C464.798 49.707 461.343 52.5078 456.687 54.2537L471.637 84.153H453.195L439.882 56.2179H427.988V84.153ZM445.447 42.2504C447.921 42.2504 449.849 41.632 451.231 40.3953C452.686 39.0859 453.413 37.1944 453.413 34.721V29.9197C453.413 27.4463 452.686 25.5912 451.231 24.3545C449.849 23.0451 447.921 22.3903 445.447 22.3903H427.988V42.2504H445.447Z" fill="#1A0942"/>
<path d="M541.892 34.1754H541.565L535.999 45.3058L521.159 72.2588L506.646 45.4149L500.862 33.4116H500.535V84.153H484.931V7.98633H502.499L521.159 43.669H521.377L539.819 7.98633H557.496V84.153H541.892V34.1754Z" fill="#1A0942"/>
<path d="M470 228.152H387.736V209.29L426.438 174.535C432.57 168.947 437.256 163.649 440.496 158.642C443.851 153.519 445.529 148.164 445.529 142.575V140.304C445.529 134.366 443.736 129.709 440.149 126.333C436.678 122.956 431.934 121.268 425.917 121.268C422.562 121.268 419.612 121.792 417.066 122.84C414.636 123.771 412.496 125.11 410.645 126.857C408.793 128.603 407.231 130.641 405.959 132.969C404.802 135.298 403.876 137.801 403.182 140.479L386 133.842C387.273 130 389.008 126.333 391.207 122.84C393.405 119.23 396.182 116.028 399.537 113.234C402.893 110.44 406.826 108.227 411.339 106.597C415.967 104.967 421.347 104.152 427.479 104.152C433.612 104.152 439.107 105.084 443.967 106.947C448.826 108.693 452.876 111.196 456.116 114.457C459.471 117.6 462.017 121.384 463.752 125.809C465.488 130.233 466.355 135.065 466.355 140.304C466.355 145.195 465.603 149.735 464.099 153.927C462.595 158.119 460.512 162.077 457.851 165.803C455.19 169.529 452.066 173.08 448.479 176.457C445.008 179.833 441.306 183.268 437.372 186.761L408.909 211.386H470V228.152Z" fill="#1A0942"/>
<path d="M515.061 156.332C522.609 156.332 528.183 154.762 531.783 151.62C535.383 148.363 537.182 144.233 537.182 139.23V138.008C537.182 132.424 535.441 128.177 531.957 125.269C528.473 122.244 523.77 120.731 517.848 120.731C512.042 120.731 507.107 122.069 503.043 124.745C498.979 127.305 495.553 130.911 492.766 135.565L479.703 124.222C481.561 121.546 483.651 118.986 485.973 116.543C488.296 114.1 491.025 112.006 494.16 110.26C497.295 108.399 500.837 106.945 504.785 105.897C508.733 104.734 513.262 104.152 518.371 104.152C524.061 104.152 529.344 104.85 534.221 106.247C539.098 107.643 543.279 109.737 546.762 112.529C550.246 115.205 552.975 118.521 554.949 122.476C556.923 126.316 557.91 130.679 557.91 135.565C557.91 139.404 557.271 142.895 555.994 146.036C554.833 149.177 553.149 151.97 550.943 154.413C548.852 156.74 546.356 158.659 543.453 160.172C540.666 161.684 537.705 162.789 534.57 163.488V164.36C538.053 165.058 541.305 166.222 544.324 167.85C547.459 169.363 550.188 171.399 552.51 173.958C554.833 176.402 556.633 179.368 557.91 182.859C559.303 186.233 560 190.13 560 194.551C560 199.903 558.955 204.789 556.865 209.211C554.775 213.515 551.814 217.238 547.982 220.379C544.266 223.521 539.737 225.964 534.395 227.709C529.054 229.338 523.132 230.152 516.629 230.152C510.939 230.152 505.946 229.512 501.65 228.233C497.353 227.069 493.521 225.499 490.154 223.521C486.902 221.427 483.999 219.1 481.445 216.54C479.006 213.864 476.858 211.13 475 208.338L489.457 196.994C490.967 199.438 492.534 201.706 494.16 203.801C495.902 205.778 497.818 207.524 499.908 209.036C502.114 210.432 504.553 211.537 507.223 212.352C510.01 213.166 513.145 213.573 516.629 213.573C524.061 213.573 529.751 211.828 533.699 208.338C537.647 204.731 539.621 199.787 539.621 193.504V192.283C539.621 186 537.531 181.23 533.35 177.972C529.17 174.715 523.248 173.086 515.584 173.086H502.695V156.332H515.061Z" fill="#1A0942"/>
</svg>
