<svg viewBox="0 0 48 39" xmlns="http://www.w3.org/2000/svg"><path d="m120 33.6116353c-1.76217.7873524-3.665313 1.312254-5.65244 1.5462101 2.033619-1.2192714 3.590327-3.1494095 4.329688-5.445479-1.903143 1.1247891-4.011748 1.9496345-6.252328 2.3905518-1.799662-1.9121415-4.358183-3.1029182-7.189652-3.1029182-5.4364803 0-9.8426541 4.4061738-9.8426541 9.8426545 0 .767856.0839842 1.5177154.2534525 2.2405799-8.1824658-.4124227-15.4381054-4.3311879-20.2926952-10.2910704-.8443416 1.4532275-1.3302505 3.1494095-1.3302505 4.949072 0 3.4118603 1.7336749 6.4292945 4.3776792 8.1929638-1.6121978-.0464912-3.1299132-.4964069-4.4616635-1.2282697v.1214773c0 4.7706055 3.3938637 8.7553583 7.9020184 9.6536899-.8248454.2249578-1.696182.346435-2.5960133.346435-.6373805 0-1.2462663-.0659876-1.8551521-.1784665 1.2567643 3.9082672 4.8935824 6.7577329 9.194776 6.8432169-3.3743673 2.6425045-7.611073 4.218709-12.2317066 4.218709-.7963507 0-1.5747047-.0464913-2.3530588-.1409736 4.3686809 2.8029745 9.541211 4.4241705 15.1006686 4.4241705 18.1091044 0 28.0162474-15.0061864 28.0162474-28.016247 0-.4304193-.008999-.85334-.028495-1.2747609 1.92114-1.3782416 3.590327-3.1119166 4.911579-5.0900457z" fill="#1399b9" fill-rule="evenodd" transform="translate(-72 -29)"/></svg>