<svg viewBox="0 0 48 48" xmlns="http://www.w3.org/2000/svg"><path d="m119.2864 39.2016-22.4-14.9328c-.5376-.3584-1.2384-.3584-1.7744 0l-22.4 14.9328c-.4448.296-.712.7968-.712 1.3312v14.9328c0 .5344.2672 1.0352.712 1.3312l22.4 14.9328c.2688.1792.5776.2688.888.2688s.6192-.0896.888-.2688l22.4-14.9328c.4448-.296.712-.7968.712-1.3312v-14.9328c0-.5344-.2672-1.0352-.712-1.3312zm-23.288 14.3424-8.3152-5.544 8.3152-5.544 8.3152 5.544zm1.6-13.8672v-11.088l17.9152 11.944-8.3152 5.544zm-3.2 0-9.6 6.4-8.3152-5.544 17.9152-11.944zm-12.4848 8.3232-6.7152 4.4768v-8.9536zm2.8848 1.9232 9.6 6.4v11.088l-17.9152-11.944zm12.8 6.4 9.6-6.4 8.3152 5.544-17.9152 11.944zm12.4848-8.3232 6.7152-4.4768v8.9536z" fill="#1399b9" fill-rule="evenodd" transform="translate(-72 -24)"/></svg>