<svg viewBox="0 0 48 48" version="1.1" xmlns="http://www.w3.org/2000/svg" xmlns:xlink="http://www.w3.org/1999/xlink">
    <g stroke="none" stroke-width="1" fill="none" fill-rule="evenodd">
        <g transform="translate(-710.000000, -460.000000)" fill="#1399B9">
            <g transform="translate(638.000000, 436.000000)">
                <path d="M119.2864,39.2016 L96.8864,24.2688 C96.3488,23.9104 95.648,23.9104 95.112,24.2688 L72.712,39.2016 C72.2672,39.4976 72,39.9984 72,40.5328 L72,55.4656 C72,56 72.2672,56.5008 72.712,56.7968 L95.112,71.7296 C95.3808,71.9088 95.6896,71.9984 96,71.9984 C96.3104,71.9984 96.6192,71.9088 96.888,71.7296 L119.288,56.7968 C119.7328,56.5008 120,56 120,55.4656 L120,40.5328 C120,39.9984 119.7328,39.4976 119.288,39.2016 L119.2864,39.2016 Z M95.9984,53.544 L87.6832,48 L95.9984,42.456 L104.3136,48 L95.9984,53.544 Z M97.5984,39.6768 L97.5984,28.5888 L115.5136,40.5328 L107.1984,46.0768 L97.5984,39.6768 Z M94.3984,39.6768 L84.7984,46.0768 L76.4832,40.5328 L94.3984,28.5888 L94.3984,39.6768 Z M81.9136,48 L75.1984,52.4768 L75.1984,43.5232 L81.9136,48 Z M84.7984,49.9232 L94.3984,56.3232 L94.3984,67.4112 L76.4832,55.4672 L84.7984,49.9232 Z M97.5984,56.3232 L107.1984,49.9232 L115.5136,55.4672 L97.5984,67.4112 L97.5984,56.3232 Z M110.0832,48 L116.7984,43.5232 L116.7984,52.4768 L110.0832,48 Z"></path>
            </g>
        </g>
    </g>
</svg>