<svg viewBox="0 0 48 45" version="1.1" xmlns="http://www.w3.org/2000/svg" xmlns:xlink="http://www.w3.org/1999/xlink">
    <g stroke="none" stroke-width="1" fill="none" fill-rule="evenodd">
        <g transform="translate(-913.000000, -461.000000)" fill="#1399B9">
            <g transform="translate(638.000000, 436.000000)">
                <g transform="translate(275.000000, 25.000000)">
                    <path d="M17.1428571,13.7142857 L26.6314286,13.7142857 L26.6314286,18.5777143 L26.7668571,18.5777143 C28.0868571,16.2102857 31.3182857,13.7142857 36.1337143,13.7142857 C46.1485714,13.7142857 48,19.9491429 48,28.0577143 L48,44.5714286 L38.1102857,44.5714286 L38.1102857,29.9314286 C38.1102857,26.4394286 38.0382857,21.948 32.9657143,21.948 C27.8142857,21.948 27.0291429,25.7502857 27.0291429,29.6777143 L27.0291429,44.5714286 L17.1428571,44.5714286 L17.1428571,13.7142857 Z"></path>
                    <polygon points="0 13.7142857 10.2857143 13.7142857 10.2857143 44.5714286 0 44.5714286"></polygon>
                    <path d="M10.2857143,5.14285714 C10.2857143,7.98342857 7.98342857,10.2857143 5.14285714,10.2857143 C2.30228571,10.2857143 0,7.98342857 0,5.14285714 C0,2.30228571 2.30228571,0 5.14285714,0 C7.98342857,0 10.2857143,2.30228571 10.2857143,5.14285714 Z"></path>
                </g>
            </g>
        </g>
    </g>
</svg>