<svg viewBox="0 0 48 47" xmlns="http://www.w3.org/2000/svg"><path d="m24 0c-13.254 0-24 10.7445-24 24 0 10.6035 6.8775 19.6005 16.413 22.773 1.2.222 1.641-.5205 1.641-1.155 0-.5715-.0225-2.463-.033-4.4685-6.678 1.452-8.0865-2.832-8.0865-2.832-1.092-2.7735-2.664-3.5115-2.664-3.5115-2.178-1.4895.165-1.4595.165-1.4595 2.409.1695 3.678 2.4735 3.678 2.4735 2.1405 3.669 5.6145 2.6085 6.984 1.995.2145-1.551.837-2.61 1.524-3.21-5.331-.606-10.935-2.6655-10.935-11.8605 0-2.6205.9375-4.761 2.4735-6.4425-.249-.6045-1.071-3.045.2325-6.351 0 0 2.016-.645 6.6015 2.46 1.914-.5325 3.9675-.798 6.0075-.8085 2.0385.009 4.0935.276 6.012.8085 4.581-3.105 6.5925-2.46 6.5925-2.46 1.3065 3.306.4845 5.7465.2355 6.351 1.539 1.68 2.4705 3.822 2.4705 6.4425 0 9.2175-5.6145 11.247-10.959 11.8425.861.7455 1.6275 2.205 1.6275 4.4445 0 3.2115-.0285 5.796-.0285 6.5865 0 .639.432 1.3875 1.6485 1.152 9.531-3.177 16.3995-12.1695 16.3995-22.77 0-13.2555-10.746-24-24-24z" fill="#1399b9" fill-rule="evenodd" transform=""/></svg>